HIERARCHY
ROOT hips
{
  OFFSET 0 10.6860622 2.3727825e-15
  CHANNELS 6 Xposition Yposition Zposition Yrotation Xrotation Zrotation
  JOINT leftUpperLeg
  {
    OFFSET 0.6642549969 -0.9402397400000004 0
    CHANNELS 3 Yrotation Xrotation Zrotation
    JOINT leftLowerLeg
    {
      OFFSET 0 -3.997221335632195 0
      CHANNELS 3 Yrotation Xrotation Zrotation
      JOINT leftFoot
      {
        OFFSET -0.13777839790000004 -4.6145792000000005 -0.22186036399999998
        CHANNELS 3 Yrotation Xrotation Zrotation
        JOINT leftToes
        {
          OFFSET -0.03777410834999995 -0.9130806927000008 0.85230013
          CHANNELS 3 Yrotation Xrotation Zrotation
          End Site
          {
            OFFSET -0.03777410834999995 -0.9130806927000008 0.85230013
          }
        }
      }
    }
  }
  JOINT rightUpperLeg
  {
    OFFSET -0.6642778626 -0.9402397400000004 0
    CHANNELS 3 Yrotation Xrotation Zrotation
    JOINT rightLowerLeg
    {
      OFFSET 0 -3.997221452859387 0
      CHANNELS 3 Yrotation Xrotation Zrotation
      JOINT rightFoot
      {
        OFFSET 0.1377926176 -4.6145792000000005 -0.22185782299999995
        CHANNELS 3 Yrotation Xrotation Zrotation
        JOINT rightToes
        {
          OFFSET 0.037780746850000047 -0.9130806927000008 0.85230167
          CHANNELS 3 Yrotation Xrotation Zrotation
          End Site
          {
            OFFSET 0.037780746850000047 -0.9130806927000008 0.85230167
          }
        }
      }
    }
  }
  JOINT spine
  {
    OFFSET 0 0.13988381660000015 0
    CHANNELS 3 Yrotation Xrotation Zrotation
    JOINT chest
    {
      OFFSET 0 0.6191039003973773 0
      CHANNELS 3 Yrotation Xrotation Zrotation
      JOINT upperChest
      {
        OFFSET 0 0.9855186130586943 0
        CHANNELS 3 Yrotation Xrotation Zrotation
        JOINT leftShoulder
        {
          OFFSET 0.1807663869 1.5087829790000005 0
          CHANNELS 3 Yrotation Xrotation Zrotation
          JOINT leftUpperArm
          {
            OFFSET 0.5985063006419806 0 0
            CHANNELS 3 Yrotation Xrotation Zrotation
            JOINT leftLowerArm
            {
              OFFSET 2.2993332369501065 0 0
              CHANNELS 3 Yrotation Xrotation Zrotation
              JOINT leftHand
              {
                OFFSET 2.395047042602395 0 0
                CHANNELS 3 Yrotation Xrotation Zrotation
                JOINT leftIndexProximal
                {
                  OFFSET 0.5766295810000004 0.04556643899499946 0.17265095988184
                  CHANNELS 3 Yrotation Xrotation Zrotation
                  JOINT leftIndexIntermediate
                  {
                    OFFSET 0.2957229000000008 -0.019352197700001517 -0.007932640616999987
                    CHANNELS 3 Yrotation Xrotation Zrotation
                    JOINT leftIndexDistal
                    {
                      OFFSET 0.19008243099999922 -0.012484908149998475 -0.002786250786000012
                      CHANNELS 3 Yrotation Xrotation Zrotation
                      End Site
                      {
                        OFFSET 0.19008243099999922 -0.012484908149998475 -0.002786250786000012
                      }
                    }
                  }
                }
                JOINT leftMiddleProximal
                {
                  OFFSET 0.5834975091000001 0.0524350405149987 0.02204081888183999
                  CHANNELS 3 Yrotation Xrotation Zrotation
                  JOINT leftMiddleIntermediate
                  {
                    OFFSET 0.33880573540000003 -0.019871473270000717 -0.00000971183179999946
                    CHANNELS 3 Yrotation Xrotation Zrotation
                    JOINT leftMiddleDistal
                    {
                      OFFSET 0.20676022730000088 -0.012221336379999448 0.0001471936708000235
                      CHANNELS 3 Yrotation Xrotation Zrotation
                      End Site
                      {
                        OFFSET 0.20676022730000088 -0.012221336379999448 0.0001471936708000235
                      }
                    }
                  }
                }
                JOINT leftLittleProximal
                {
                  OFFSET 0.5344154683999995 -0.012880921405001189 -0.24414037221816004
                  CHANNELS 3 Yrotation Xrotation Zrotation
                  JOINT leftLittleIntermediate
                  {
                    OFFSET 0.21758961730000093 -0.011650919939999227 0.011893592810000034
                    CHANNELS 3 Yrotation Xrotation Zrotation
                    JOINT leftLittleDistal
                    {
                      OFFSET 0.1475273964999999 -0.008152365682999818 0.006001092492999946
                      CHANNELS 3 Yrotation Xrotation Zrotation
                      End Site
                      {
                        OFFSET 0.1475273964999999 -0.008152365682999818 0.006001092492999946
                      }
                    }
                  }
                }
                JOINT leftRingProximal
                {
                  OFFSET 0.5799399463000003 0.026911854694997794 -0.12150566991816003
                  CHANNELS 3 Yrotation Xrotation Zrotation
                  JOINT leftRingIntermediate
                  {
                    OFFSET 0.26167887460000006 -0.013480186499999602 0.010996293000000053
                    CHANNELS 3 Yrotation Xrotation Zrotation
                    JOINT leftRingDistal
                    {
                      OFFSET 0.17667108799999987 -0.008990287899999228 0.0055541023999999065
                      CHANNELS 3 Yrotation Xrotation Zrotation
                      End Site
                      {
                        OFFSET 0.17667108799999987 -0.008990287899999228 0.0055541023999999065
                      }
                    }
                  }
                }
                JOINT leftThumbProximal
                {
                  OFFSET 0.11018806699999972 -0.09448718900500053 0.17047963138184
                  CHANNELS 3 Yrotation Xrotation Zrotation
                  JOINT leftThumbIntermediate
                  {
                    OFFSET 0.31062601459999983 -0.08126270900000132 0.15443142000000007
                    CHANNELS 3 Yrotation Xrotation Zrotation
                    JOINT leftThumbDistal
                    {
                      OFFSET 0.21627175790000086 -0.08833193599999878 0.018771167799999988
                      CHANNELS 3 Yrotation Xrotation Zrotation
                      End Site
                      {
                        OFFSET 0.21627175790000086 -0.08833193599999878 0.018771167799999988
                      }
                    }
                  }
                }
              }
            }
          }
        }
        JOINT neck
        {
          OFFSET 0 1.5463305265074576 0
          CHANNELS 3 Yrotation Xrotation Zrotation
          JOINT head
          {
            OFFSET 0 0.8456443600000344 0
            CHANNELS 3 Yrotation Xrotation Zrotation
            JOINT leftEye
            {
              OFFSET 0.30408573140000006 0.5104519199999995 0.1276382305
              CHANNELS 3 Yrotation Xrotation Zrotation
              End Site
              {
                OFFSET 0.30408573140000006 0.5104519199999995 0.1276382305
              }
            }
            JOINT rightEye
            {
              OFFSET -0.30409491089999996 0.5104519199999995 0.1276379445
              CHANNELS 3 Yrotation Xrotation Zrotation
              End Site
              {
                OFFSET -0.30409491089999996 0.5104519199999995 0.1276379445
              }
            }
            JOINT jaw
            {
              OFFSET -3.155239131000001e-7 -0.11984121820000082 0.60178107
              CHANNELS 3 Yrotation Xrotation Zrotation
              End Site
              {
                OFFSET -3.155239131000001e-7 -0.11984121820000082 0.60178107
              }
            }
          }
        }
        JOINT rightShoulder
        {
          OFFSET -0.1807303465 1.5087829790000005 0
          CHANNELS 3 Yrotation Xrotation Zrotation
          JOINT rightUpperArm
          {
            OFFSET -0.5985063796536958 0 0
            CHANNELS 3 Yrotation Xrotation Zrotation
            JOINT rightLowerArm
            {
              OFFSET -2.2993322059002854 0 0
              CHANNELS 3 Yrotation Xrotation Zrotation
              JOINT rightHand
              {
                OFFSET -2.395045314457259 0 0
                CHANNELS 3 Yrotation Xrotation Zrotation
                JOINT rightIndexProximal
                {
                  OFFSET -0.5764487688300002 0.0441371204405987 0.17361932004999997
                  CHANNELS 3 Yrotation Xrotation Zrotation
                  JOINT rightIndexIntermediate
                  {
                    OFFSET -0.29573011380000047 -0.01934826376999843 -0.007698921482999974
                    CHANNELS 3 Yrotation Xrotation Zrotation
                    JOINT rightIndexDistal
                    {
                      OFFSET -0.19008373999999884 -0.012503266380000655 -0.0026365778999999897
                      CHANNELS 3 Yrotation Xrotation Zrotation
                      End Site
                      {
                        OFFSET -0.19008373999999884 -0.012503266380000655 -0.0026365778999999897
                      }
                    }
                  }
                }
                JOINT rightMiddleProximal
                {
                  OFFSET -0.5834852037300005 0.05211639405060153 0.02307162440000001
                  CHANNELS 3 Yrotation Xrotation Zrotation
                  JOINT rightMiddleIntermediate
                  {
                    OFFSET -0.33880114510000003 -0.019952774050000954 0.0002455003561999819
                    CHANNELS 3 Yrotation Xrotation Zrotation
                    JOINT rightMiddleDistal
                    {
                      OFFSET -0.20675694929999955 -0.012273788999999091 0.00030209124000002766
                      CHANNELS 3 Yrotation Xrotation Zrotation
                      End Site
                      {
                        OFFSET -0.20675694929999955 -0.012273788999999091 0.00030209124000002766
                      }
                    }
                  }
                }
                JOINT rightLittleProximal
                {
                  OFFSET -0.5346811737299992 -0.011214256288399227 -0.24363941305000003
                  CHANNELS 3 Yrotation Xrotation Zrotation
                  JOINT rightLittleIntermediate
                  {
                    OFFSET -0.21757715980000092 -0.011771559690000988 0.01201554387
                    CHANNELS 3 Yrotation Xrotation Zrotation
                    JOINT rightLittleDistal
                    {
                      OFFSET -0.1475201849000004 -0.00822055339600003 0.006082065407000015
                      CHANNELS 3 Yrotation Xrotation Zrotation
                      End Site
                      {
                        OFFSET -0.1475201849000004 -0.00822055339600003 0.006082065407000015
                      }
                    }
                  }
                }
                JOINT rightRingProximal
                {
                  OFFSET -0.5800810755299999 0.027657985680600072 -0.12066365025000003
                  CHANNELS 3 Yrotation Xrotation Zrotation
                  JOINT rightRingIntermediate
                  {
                    OFFSET -0.26166445029999974 -0.013623118409999302 0.011164098990000045
                    CHANNELS 3 Yrotation Xrotation Zrotation
                    JOINT rightRingDistal
                    {
                      OFFSET -0.17666387530000027 -0.009072900100000503 0.005668185599999959
                      CHANNELS 3 Yrotation Xrotation Zrotation
                      End Site
                      {
                        OFFSET -0.17666387530000027 -0.009072900100000503 0.005668185599999959
                      }
                    }
                  }
                }
                JOINT rightThumbProximal
                {
                  OFFSET -0.10997596379000074 -0.09577489355940072 0.16989765924999997
                  CHANNELS 3 Yrotation Xrotation Zrotation
                  JOINT rightThumbIntermediate
                  {
                    OFFSET -0.31036620999999986 -0.08229339117999834 0.15440884469999996
                    CHANNELS 3 Yrotation Xrotation Zrotation
                    JOINT rightThumbDistal
                    {
                      OFFSET -0.21631306399999906 -0.08825326400000111 0.018656797720000014
                      CHANNELS 3 Yrotation Xrotation Zrotation
                      End Site
                      {
                        OFFSET -0.21631306399999906 -0.08825326400000111 0.018656797720000014
                      }
                    }
                  }
                }
              }
            }
          }
        }
      }
    }
  }
}
MOTION
Frames: 4
Frame Time: 0.03333333333333333
-0.024436280131340027 -6.2600115370056155 -0.2723342180252075 3.5032457404726713 -37.53730040684867 6.039774097885647 42.47232367968916 -66.19733456022405 -26.430702645035016 107.25245804881581 80.60961800271663 105.3729577257724 -2.765278712518509 12.971795964530951 17.649116129748094 -0.02517866999780794 -0.00003466713979887017 0.00032610893792954526 19.214993968693555 -67.12948439140281 -27.565011645465827 -12.647175501564353 67.7593010321275 -9.55217681467138 -1.0065162036233908 -1.3326123579886482 -1.3424616768092255 -0.10713064918647183 0.46081456595846665 0.263923422667478 -0.6220270811751657 7.341750471311108 -1.8608139825746588 -2.801238577347999 29.274986742755413 -6.8888294176801805 0 0 0 4.346710779106002 1.5700418238790936 -16.049700881380083 -11.389601347975105 -1.8455337792265538 -52.499676290575124 -87.66389664019682 3.2758920469856516 -6.2163451048867655 -51.04863686632382 65.70924959608851 -28.467732158709588 -1.2225069988772852 -6.879067335364708 -19.289463105002284 -1.5924511580703387 -0.9951286579891799 -34.53795813482765 0.000003995213917131341 -4.364261971708168e-7 -0.000011205311743624915 2.620788403872507 2.3017759942791622 -14.439158403811867 -2.025609807831245 -0.5698633369554602 -23.634577797975332 1.139979627027678e-10 6.3611093629270335e-15 -1.43444452663829e-12 4.091414118909207 -2.0116766798746495 0.4938530162784276 -5.833647041332239 -0.6008365532069607 -25.359252958109934 4.171116073730225e-11 5.950788745874541e-26 -1.634838641478621e-13 5.629201363837444 -0.6640220032278008 -6.963571618184546 -2.4261609293303983 -0.33882450093249766 -21.947792884142906 0 0 0 10.270273695767676 -14.508961990886043 -16.89011465277011 0.9297202340663594 10.48927035096007 33.14027810525185 0.000006459131920876966 0.000011370774681263094 0.00000778420168649405 3.053752979283125 9.240155343831255 -4.988080931668265 -6.67513876406941 -11.810389272190383 10.525886641524666 0 0 0 0 0 0 0 0 0 -1.5876991737246746 1.1822472703131224 15.17148480860681 32.23355443626325 -6.749086774572885 57.04415719857297 69.37501390360995 2.152124046039601 -2.273509620333412 19.920664177030375 59.93657922318378 -5.294594983810497 -2.143888729802281 -8.498632890682382 44.19658623716609 1.8329201250594964 -1.5627463766691305 45.33296505228648 3.933694872703174e-10 3.1805546814635168e-15 -4.874754472204794e-12 3.559562489462589 -2.4332977151336252 25.072465626256044 3.258293823030751 -1.5957871610614578 43.500911599487814 1.215836204053751e-9 -3.180554491887685e-15 -1.6036856771618462e-11 2.0145892060319333 1.478072692151225 5.402494090005916 8.02876382891577 -1.3811080276272236 35.92632359833486 6.03787035398302e-7 0.0000020090840283003914 -0.000003569371740829563 2.9488461817720144 -1.923921663202183 12.575262869996594 4.586760875027866 -1.5001642891177054 42.16019732947984 -4.3803240153668535e-10 2.0219334966109398e-23 5.2894833502657416e-12 -3.404053135082313 -12.26460325655742 8.180834027438141 -21.57545345642437 -14.916168598664903 11.10701509705851 -0.000014697651569624505 0.000004285399380492598 -0.00003094952591566483
-0.02500194124877453 -6.259785516192627 -0.27877068519592285 3.4908675181831517 -37.54893824773094 6.034153071182025 42.36060952251374 -66.19686916348842 -26.34049562443086 106.7710279852101 80.63909270660997 104.8834776621874 -2.8102410441775745 13.05666472862124 17.612235535658282 -0.023890847340611938 0.026224187066174662 0.00030034657282164857 19.109734428188883 -67.07385593653574 -27.44611064738957 -12.743662582782772 67.61460777810876 -9.628156799461506 -1.0128191591752667 -1.271793023060903 -1.2952368907001686 -0.10720386190019622 0.4715508581482589 0.2639549260563336 -0.6254195934177413 7.354539162026737 -1.8660658726773207 -2.8292210162140647 29.324687616912712 -6.923994522206378 0 0 0 4.669643352818396 1.5811777485169352 -15.91795651080063 -11.482234312734764 -2.091045042872396 -52.74446424848346 -87.57284107599013 3.164572000824694 -6.322513922581921 -50.449219031233866 65.93556842658697 -27.219953899205265 -1.2204479799376815 -6.874758073371176 -19.27405633994397 -1.59246097415569 -0.9951154225014519 -34.53793350721207 0.000003995213917131341 -4.364261971708168e-7 -0.000011205311743624915 2.6253260388379607 2.303839737701446 -14.408550866686337 -2.02485377987097 -0.5695490259943831 -23.62540028855255 1.139979627027678e-10 6.3611093629270335e-15 -1.43444452663829e-12 4.093637500507688 -2.0104652827022096 0.5186915310499188 -5.833639474311387 -0.60084530486804 -25.35924832883063 4.171116073730225e-11 5.950788745874541e-26 -1.634838641478621e-13 5.628884534895926 -0.6649883799052841 -6.954620065373762 -2.4261577304932436 -0.3388230334833845 -21.94774532255055 0 0 0 10.285569661845992 -14.5046266190676 -16.89549127159446 0.9128326103135102 10.482720957680089 33.14442519714911 0.000006459131920876966 0.000011370774681263094 0.00000778420168649405 3.040173581745048 9.311188366559552 -4.95980557666517 -6.74205799707698 -11.726031451309622 10.52710775101471 0 0 0 0 0 0 0 0 0 -1.5578534539292823 1.2435611051539535 14.948288766364918 32.28125416303154 -6.872771147832969 57.03744543365621 69.22689122702307 1.8198767093567383 -2.3318380334600888 20.74164418164668 59.52984482739833 -4.746711396888764 -2.1418916265817427 -8.498003579989653 44.18161143251534 1.7553419304401499 -1.4814862571147527 44.29123678278082 3.933694872703174e-10 3.1805546814635168e-15 -4.874754472204794e-12 3.5629366362890593 -2.439293423988965 25.09202468985298 3.1869601174760196 -1.5292789663580015 42.55232364292763 1.215836204053751e-9 -3.180554491887685e-15 -1.6036856771618462e-11 1.9604941759728816 1.487734242271801 4.971084240000931 8.028746438776794 -1.3810998076679237 35.926286675845304 6.03787035398302e-7 0.0000020090840283003914 -0.000003569371740829563 2.949283099267598 -1.9263242576499116 12.595131503580347 4.5186635749512405 -1.4395138081849388 41.24347098866241 -4.3803240153668535e-10 2.0219334966109398e-23 5.2894833502657416e-12 -3.415029823332872 -12.25931558983439 8.175799690593252 -21.570926738344934 -14.918299722355886 11.10747001961245 -0.000014697651569624505 0.000004285399380492598 -0.00003094952591566483
-0.026870254427194595 -6.259187085559082 -0.2926885783672333 3.4363690862143925 -37.58002734389555 5.990378579936156 42.08309541778701 -66.23361958003304 -26.062511029132445 105.93586010422284 80.67999794882175 104.03441248043151 -2.9338357321613215 13.147419310600345 17.53739112062748 -0.02143746317073383 0.2673447661406997 0.00023689444265413494 18.807475573344107 -66.96237816141131 -27.06737029254782 -12.947141331926838 67.29964783446125 -9.788324210184381 -1.0260712195628634 -1.1260473151827206 -1.1908181010027592 -0.10733696706281752 0.49307632177867894 0.26402224930780077 -0.6332779492753013 7.37449425004885 -1.8722021207351789 -2.9000386423770674 29.40073965524628 -6.994755539642807 0 0 0 5.409376162203456 1.5940515138782927 -15.715087918257748 -11.807043483347861 -2.7441921883304996 -53.000920217908565 -87.49400020128256 2.046823396318455 -6.404519223189892 -51.16515099968641 64.70305106549006 -29.078900255821164 -1.2157669592625184 -6.87242372695163 -19.2900337194213 -1.592446890207113 -0.9951267367086999 -34.53787950188281 0.000003995213917131341 -4.364261971708168e-7 -0.000011205311743624915 2.62594247239577 2.3044953255917844 -14.410047342193758 -2.0257362143341293 -0.5699123246416005 -23.636246293939003 1.139979627027678e-10 6.3611093629270335e-15 -1.43444452663829e-12 4.097248865047174 -2.008130270202119 0.5152427794733708 -5.833652562424617 -0.6008422097683884 -25.3592422368113 4.171116073730225e-11 5.950788745874541e-26 -1.634838641478621e-13 5.627980781737151 -0.667280116617378 -6.93550916615 -2.4262077769236914 -0.33884648598832884 -21.948269469142282 0 0 0 10.301764062587377 -14.50014317897298 -16.898029782964684 0.9131421162351508 10.482829490842509 33.14435564419469 0.000006459131920876966 0.000011370774681263094 0.00000778420168649405 3.01703198943163 9.446243011179005 -4.935290237811262 -6.913351721048887 -11.575800134341605 10.649864252175183 0 0 0 0 0 0 0 0 0 -1.4825246334801792 1.3514383217426005 14.311351291619015 32.50893319222417 -7.246960645738359 57.082781033255635 68.83390730963491 1.1387536284910889 -2.4048683355856455 22.266762069772728 58.671368384073205 -3.734066056464071 -2.1454693464321277 -8.492701527332306 44.0381022536099 1.2301828882395716 -1.015957646113806 38.00242262723277 3.933694872703174e-10 3.1805546814635168e-15 -4.874754472204794e-12 3.565349211648129 -2.4417374334100463 25.087200547754865 2.7163217693556154 -1.1402531515618268 36.60436353367663 1.215836204053751e-9 -3.180554491887685e-15 -1.6036856771618462e-11 1.65056420801575 1.5087606976455974 2.4246551769240314 8.028762137614395 -1.3810975658608466 35.92627436834837 6.03787035398302e-7 0.0000020090840283003914 -0.000003569371740829563 2.954622627434003 -1.930282245743154 12.592418093738765 4.083357427858312 -1.094013158709961 35.64639178988567 -4.3803240153668535e-10 2.0219334966109398e-23 5.2894833502657416e-12 -3.420512830581871 -12.256948755527539 8.17616489178836 -21.570105638222174 -14.918674349930074 11.10756376882344 -0.000014697651569624505 0.000004285399380492598 -0.00003094952591566483
-0.02831321582198143 -6.259026391436768 -0.3082444667816162 3.3536325196802137 -37.601912958916294 5.886323060329748 41.81045794938759 -66.32472713054631 -25.697330213191066 104.98502925294433 80.72159025229637 103.0684152198581 -2.9576366995670127 13.349976806108431 17.361145418621245 -0.019723722895778107 0.2906761687279739 0.17629644946829978 18.413604697471104 -66.86663285722625 -26.53471538562814 -13.097564148663638 66.95087026956432 -9.8980518928877 -1.0401203467857225 -0.9677084693699163 -1.0689898557489455 -0.1075216033249536 0.5207636842037333 0.26411097693814284 -0.6184186890215355 7.396137670468469 -1.851699268962088 -2.8837307993675334 29.487517494818867 -6.974584841737167 0 0 0 6.420864111405746 1.6166738690423137 -15.655677830255529 -13.386303142203266 -3.6582913803394606 -52.53257935498985 -86.92709254597462 0.6985560139106407 -6.428387376950696 -50.47175583520895 62.642511461058376 -30.999164311737413 -1.2117587495721616 -6.873828461211107 -19.32702519014858 -1.5924447562754935 -0.995117130306317 -34.53775442732166 0.000003995213917131341 -4.364261971708168e-7 -0.000011205311743624915 2.6216410722385297 2.3030858867662247 -14.446751334006397 -2.025671364878758 -0.5698893783397617 -23.635172683708152 1.139979627027678e-10 6.3611093629270335e-15 -1.43444452663829e-12 4.1061333154210224 -2.002390036415829 0.5067070798006781 -5.833641944939179 -0.6008395949428221 -25.359225423493072 4.171116073730225e-11 5.950788745874541e-26 -1.634838641478621e-13 5.625247771297357 -0.6691369871320055 -6.94471438794976 -2.426327131489376 -0.3389312245049606 -21.949962420305308 0 0 0 10.282545549437922 -14.505543777711344 -16.89251266706923 0.9214060718027587 10.486031670386268 33.14233377994343 0.000006459131920876966 0.000011370774681263094 0.00000778420168649405 3.012859601234489 9.531082122153212 -5.080667771403311 -7.163415517721214 -11.568900554910813 11.068344650304534 0 0 0 0 0 0 0 0 0 -1.4558696818867571 1.4340186874665888 13.370677623968025 32.51546394373434 -7.989513024396387 57.44478033775137 68.38426259093615 0.5890390599165825 -2.4527477034429968 24.119080895169816 57.767473838924914 -2.243694764579129 -2.194092675187027 -8.450072816605566 43.32739149821065 0.4950048622532466 -0.5172429507694464 30.126127139064284 3.933694872703174e-10 3.1805546814635168e-15 -4.874754472204794e-12 3.562833883260855 -2.437328392362513 25.073422924809883 2.0581165401174055 -0.7162756756931947 28.97193631681639 1.215836204053751e-9 -3.180554491887685e-15 -1.6036856771618462e-11 1.263790303152209 1.511644679563392 -0.7613462379542544 8.028777836452674 -1.3811005549369497 35.92623067086955 6.03787035398302e-7 0.0000020090840283003914 -0.000003569371740829563 2.9654420451714394 -1.9356414442240992 12.561281242893832 3.5064208499239258 -0.7305702132613721 28.774781198969645 -4.3803240153668535e-10 2.0219334966109398e-23 5.2894833502657416e-12 -3.4059995196783306 -12.264201348224065 8.185799647836621 -21.573586379467564 -14.917045078157106 11.107201411715964 -0.000014697651569624505 0.000004285399380492598 -0.00003094952591566483
